<?xml version="1.0" encoding="UTF-8"?>
<svg width="80" height="24" viewBox="0 0 80 24" fill="none" xmlns="http://www.w3.org/2000/svg">
  <path d="M15.5 4C18.5376 4 21 6.46243 21 9.5C21 12.5376 18.5376 15 15.5 15C12.4624 15 10 12.5376 10 9.5C10 6.46243 12.4624 4 15.5 4Z" fill="#5392F9"/>
  <path d="M25.4268 4.32722H29.1458L32.8649 15.6728H29.7054L29.0261 13.4895H25.5465L24.8672 15.6728H21.7077L25.4268 4.32722ZM28.4665 11.3062L27.3463 7.18843L26.2261 11.3062H28.4665Z" fill="#5392F9"/>
  <path d="M33.9851 4.32722H36.9049V15.6728H33.9851V4.32722Z" fill="#5392F9"/>
  <path d="M38.7446 4.32722H41.6644V13.4895H45.3834V15.6728H38.7446V4.32722Z" fill="#5392F9"/>
  <path d="M46.5036 4.32722H49.4234V15.6728H46.5036V4.32722Z" fill="#5392F9"/>
  <path d="M51.2631 4.32722H54.1829V13.4895H57.9019V15.6728H51.2631V4.32722Z" fill="#5392F9"/>
  <path d="M59.0221 4.32722H65.6609V6.51052H61.9419V8.69381H65.1013V10.8771H61.9419V13.4895H65.6609V15.6728H59.0221V4.32722Z" fill="#5392F9"/>
</svg> 