<?xml version="1.0" encoding="UTF-8"?>
<svg width="80" height="24" viewBox="0 0 80 24" fill="none" xmlns="http://www.w3.org/2000/svg">
  <path d="M12 4C14.7614 4 17 6.23858 17 9C17 11.7614 14.7614 14 12 14C9.23858 14 7 11.7614 7 9C7 6.23858 9.23858 4 12 4Z" fill="#003580"/>
  <path d="M23.0909 4.36364H26.5455L30 14.6364H27.0909L26.4545 12.6364H23.1818L22.5455 14.6364H19.6364L23.0909 4.36364ZM25.9091 10.6364L24.8636 6.90909L23.8182 10.6364H25.9091Z" fill="#003580"/>
  <path d="M31 4.36364H33.7273V14.6364H31V4.36364Z" fill="#003580"/>
  <path d="M35.4545 4.36364H38.1818V12.6364H41.6364V14.6364H35.4545V4.36364Z" fill="#003580"/>
  <path d="M43 4.36364H45.7273V14.6364H43V4.36364Z" fill="#003580"/>
  <path d="M47.4545 4.36364H50.1818V12.6364H53.6364V14.6364H47.4545V4.36364Z" fill="#003580"/>
  <path d="M55 4.36364H61.1818V6.36364H57.7273V8.36364H60.6364V10.3636H57.7273V12.6364H61.1818V14.6364H55V4.36364Z" fill="#003580"/>
  <path d="M63.4545 4.36364H69.6364V6.36364H66.1818V8.36364H69.0909V10.3636H66.1818V12.6364H69.6364V14.6364H63.4545V4.36364Z" fill="#003580"/>
</svg> 