<?xml version="1.0" encoding="UTF-8"?>
<svg width="80" height="24" viewBox="0 0 80 24" fill="none" xmlns="http://www.w3.org/2000/svg">
  <path d="M12.0001 4.8C13.7674 4.8 15.2001 6.23269 15.2001 8C15.2001 9.76731 13.7674 11.2 12.0001 11.2C10.2328 11.2 8.80011 9.76731 8.80011 8C8.80011 6.23269 10.2328 4.8 12.0001 4.8Z" fill="#00A4BB"/>
  <path d="M23.8935 8.53846H21.9627V6.76923H25.8243V17.2308H23.8935V8.53846Z" fill="#00A4BB"/>
  <path d="M27.7551 6.76923H29.6859V17.2308H27.7551V6.76923Z" fill="#00A4BB"/>
  <path d="M35.5475 6.61538C38.4091 6.61538 40.3399 8.84615 40.3399 12C40.3399 15.1538 38.4091 17.3846 35.5475 17.3846C32.6859 17.3846 30.7551 15.1538 30.7551 12C30.7551 8.84615 32.6859 6.61538 35.5475 6.61538ZM35.5475 15.6154C37.1551 15.6154 38.4091 14.1538 38.4091 12C38.4091 9.84615 37.1551 8.38462 35.5475 8.38462C33.9399 8.38462 32.6859 9.84615 32.6859 12C32.6859 14.1538 33.9399 15.6154 35.5475 15.6154Z" fill="#00A4BB"/>
  <path d="M42.2707 6.76923H44.2015L47.0631 13.8462L49.9247 6.76923H51.8555L47.0631 17.8462L42.2707 6.76923Z" fill="#00A4BB"/>
  <path d="M53.7863 6.76923H61.4787V8.53846H55.7171V11.0769H60.5094V12.8462H55.7171V15.4615H61.4787V17.2308H53.7863V6.76923Z" fill="#00A4BB"/>
  <path d="M63.4095 6.76923H65.3403V15.4615H71.1019V17.2308H63.4095V6.76923Z" fill="#00A4BB"/>
</svg> 